<mxfile host="app.diagrams.net" modified="2024-05-05T22:44:16.290Z" agent="Mozilla/5.0 (X11; Linux x86_64; rv:125.0) Gecko/20100101 Firefox/125.0" etag="g0BVOrtc63YsGrb2qLad" version="24.3.1" type="device">
  <diagram name="Page-1" id="RWwz21zOMu_LFXxn6YUW">
    <mxGraphModel dx="1358" dy="908" grid="1" gridSize="10" guides="1" tooltips="1" connect="1" arrows="1" fold="1" page="1" pageScale="1" pageWidth="850" pageHeight="1100" math="0" shadow="0">
      <root>
        <mxCell id="0" />
        <mxCell id="1" parent="0" />
        <mxCell id="VqaFQcM8Yi9CkmuzgbGf-1" value="" style="ellipse;whiteSpace=wrap;html=1;fillColor=default;fontSize=13;" vertex="1" parent="1">
          <mxGeometry x="100" y="70" width="250" height="150" as="geometry" />
        </mxCell>
        <mxCell id="VqaFQcM8Yi9CkmuzgbGf-2" value="Planning" style="rounded=1;whiteSpace=wrap;html=1;fontSize=13;" vertex="1" parent="1">
          <mxGeometry x="170" y="60" width="80" height="30" as="geometry" />
        </mxCell>
        <mxCell id="VqaFQcM8Yi9CkmuzgbGf-3" value="Testing" style="rounded=1;whiteSpace=wrap;html=1;fontSize=13;" vertex="1" parent="1">
          <mxGeometry x="70" y="110" width="80" height="30" as="geometry" />
        </mxCell>
        <mxCell id="VqaFQcM8Yi9CkmuzgbGf-4" value="Building" style="rounded=1;whiteSpace=wrap;html=1;fontSize=13;" vertex="1" parent="1">
          <mxGeometry x="120" y="190" width="80" height="30" as="geometry" />
        </mxCell>
        <mxCell id="VqaFQcM8Yi9CkmuzgbGf-5" value="Req Analysis" style="rounded=1;whiteSpace=wrap;html=1;fontSize=13;" vertex="1" parent="1">
          <mxGeometry x="290" y="90" width="80" height="30" as="geometry" />
        </mxCell>
        <mxCell id="VqaFQcM8Yi9CkmuzgbGf-6" value="Designing" style="rounded=1;whiteSpace=wrap;html=1;fontSize=13;" vertex="1" parent="1">
          <mxGeometry x="300" y="160" width="80" height="30" as="geometry" />
        </mxCell>
        <mxCell id="VqaFQcM8Yi9CkmuzgbGf-7" value="Iteration 1" style="text;html=1;align=center;verticalAlign=middle;whiteSpace=wrap;rounded=0;fontSize=13;" vertex="1" parent="1">
          <mxGeometry x="190" y="130" width="60" height="30" as="geometry" />
        </mxCell>
        <mxCell id="VqaFQcM8Yi9CkmuzgbGf-22" value="" style="ellipse;whiteSpace=wrap;html=1;fillColor=default;fontSize=13;" vertex="1" parent="1">
          <mxGeometry x="290" y="270" width="250" height="150" as="geometry" />
        </mxCell>
        <mxCell id="VqaFQcM8Yi9CkmuzgbGf-23" value="Planning" style="rounded=1;whiteSpace=wrap;html=1;fontSize=13;" vertex="1" parent="1">
          <mxGeometry x="360" y="260" width="80" height="30" as="geometry" />
        </mxCell>
        <mxCell id="VqaFQcM8Yi9CkmuzgbGf-24" value="Testing" style="rounded=1;whiteSpace=wrap;html=1;fontSize=13;" vertex="1" parent="1">
          <mxGeometry x="260" y="310" width="80" height="30" as="geometry" />
        </mxCell>
        <mxCell id="VqaFQcM8Yi9CkmuzgbGf-25" value="Building" style="rounded=1;whiteSpace=wrap;html=1;fontSize=13;" vertex="1" parent="1">
          <mxGeometry x="310" y="390" width="80" height="30" as="geometry" />
        </mxCell>
        <mxCell id="VqaFQcM8Yi9CkmuzgbGf-26" value="Req Analysis" style="rounded=1;whiteSpace=wrap;html=1;fontSize=13;" vertex="1" parent="1">
          <mxGeometry x="480" y="290" width="80" height="30" as="geometry" />
        </mxCell>
        <mxCell id="VqaFQcM8Yi9CkmuzgbGf-27" value="Designing" style="rounded=1;whiteSpace=wrap;html=1;fontSize=13;" vertex="1" parent="1">
          <mxGeometry x="490" y="360" width="80" height="30" as="geometry" />
        </mxCell>
        <mxCell id="VqaFQcM8Yi9CkmuzgbGf-28" value="Iteration 2" style="text;html=1;align=center;verticalAlign=middle;whiteSpace=wrap;rounded=0;fontSize=13;" vertex="1" parent="1">
          <mxGeometry x="380" y="330" width="60" height="30" as="geometry" />
        </mxCell>
        <mxCell id="VqaFQcM8Yi9CkmuzgbGf-29" value="" style="ellipse;whiteSpace=wrap;html=1;fillColor=default;fontSize=13;" vertex="1" parent="1">
          <mxGeometry x="490" y="470" width="250" height="150" as="geometry" />
        </mxCell>
        <mxCell id="VqaFQcM8Yi9CkmuzgbGf-30" value="Planning" style="rounded=1;whiteSpace=wrap;html=1;fontSize=13;" vertex="1" parent="1">
          <mxGeometry x="560" y="460" width="80" height="30" as="geometry" />
        </mxCell>
        <mxCell id="VqaFQcM8Yi9CkmuzgbGf-31" value="Testing" style="rounded=1;whiteSpace=wrap;html=1;fontSize=13;" vertex="1" parent="1">
          <mxGeometry x="460" y="510" width="80" height="30" as="geometry" />
        </mxCell>
        <mxCell id="VqaFQcM8Yi9CkmuzgbGf-32" value="Building" style="rounded=1;whiteSpace=wrap;html=1;fontSize=13;" vertex="1" parent="1">
          <mxGeometry x="510" y="590" width="80" height="30" as="geometry" />
        </mxCell>
        <mxCell id="VqaFQcM8Yi9CkmuzgbGf-33" value="Req Analysis" style="rounded=1;whiteSpace=wrap;html=1;fontSize=13;" vertex="1" parent="1">
          <mxGeometry x="680" y="490" width="80" height="30" as="geometry" />
        </mxCell>
        <mxCell id="VqaFQcM8Yi9CkmuzgbGf-34" value="Designing" style="rounded=1;whiteSpace=wrap;html=1;fontSize=13;" vertex="1" parent="1">
          <mxGeometry x="690" y="560" width="80" height="30" as="geometry" />
        </mxCell>
        <mxCell id="VqaFQcM8Yi9CkmuzgbGf-35" value="Iteration 3" style="text;html=1;align=center;verticalAlign=middle;whiteSpace=wrap;rounded=0;fontSize=13;" vertex="1" parent="1">
          <mxGeometry x="580" y="530" width="60" height="30" as="geometry" />
        </mxCell>
        <mxCell id="VqaFQcM8Yi9CkmuzgbGf-40" value="" style="shape=mxgraph.arrows.u_turn_right_arrow;html=1;verticalLabelPosition=bottom;verticalAlign=top;strokeWidth=2;strokeColor=#000000;" vertex="1" parent="1">
          <mxGeometry x="230" y="230" width="91" height="60" as="geometry" />
        </mxCell>
        <mxCell id="VqaFQcM8Yi9CkmuzgbGf-41" value="2-3 Months" style="text;html=1;align=center;verticalAlign=middle;whiteSpace=wrap;rounded=0;fontSize=13;" vertex="1" parent="1">
          <mxGeometry x="250" y="240" width="80" height="30" as="geometry" />
        </mxCell>
        <mxCell id="VqaFQcM8Yi9CkmuzgbGf-42" value="" style="shape=mxgraph.arrows.u_turn_right_arrow;html=1;verticalLabelPosition=bottom;verticalAlign=top;strokeWidth=2;strokeColor=#000000;" vertex="1" parent="1">
          <mxGeometry x="440" y="430" width="91" height="60" as="geometry" />
        </mxCell>
        <mxCell id="VqaFQcM8Yi9CkmuzgbGf-43" value="2-3 Months" style="text;html=1;align=center;verticalAlign=middle;whiteSpace=wrap;rounded=0;fontSize=13;" vertex="1" parent="1">
          <mxGeometry x="460" y="440" width="80" height="30" as="geometry" />
        </mxCell>
      </root>
    </mxGraphModel>
  </diagram>
</mxfile>
